<?xml version="1.0" encoding="iso-8859-1"?>
<!-- Uploaded to: SVG Repo, www.svgrepo.com, Generator: SVG Repo Mixer Tools -->
<svg version="1.1" id="Layer_1" xmlns="http://www.w3.org/2000/svg" xmlns:xlink="http://www.w3.org/1999/xlink" 
	 viewBox="0 0 512 512" xml:space="preserve">
<circle style="fill:#E09112;" cx="256" cy="256" r="256"/>
<path style="fill:#FF5419;" d="M511.426,256c0-8.235-0.405-16.374-1.165-24.409l-85.935-85.935l-76.581,110.721l-5.837-5.837
	L87.674,366.344l144.603,144.603c7.627,0.684,15.344,1.053,23.149,1.053C396.81,512,511.426,397.384,511.426,256z"/>
<path style="fill:#FFEDB5;" d="M416.897,369.778H95.101c-5.396,0-9.769-4.374-9.769-9.769V151.992c0-5.396,4.374-9.769,9.769-9.769
	h321.796c5.396,0,9.769,4.374,9.769,9.769V360.01C426.667,365.404,422.293,369.778,416.897,369.778z"/>
<path style="fill:#FEE187;" d="M416.897,142.222H255.424v227.556h161.473c5.396,0,9.769-4.374,9.769-9.769V151.992
	C426.667,146.596,422.293,142.222,416.897,142.222z"/>
<rect x="99.987" y="157.306" style="fill:#273B7A;" width="312.027" height="168.943"/>
<rect x="255.431" y="157.306" style="fill:#121149;" width="156.582" height="168.943"/>
<path style="fill:#FFFFFF;" d="M190.348,398.222h-39.364c-4.839,0-8.763-3.924-8.763-8.763v-96.253c0-4.839,3.924-8.763,8.763-8.763
	h39.364c4.839,0,8.763,3.924,8.763,8.763v96.253C199.111,394.299,195.188,398.222,190.348,398.222z"/>
<g>
	<path style="fill:#FFC61B;" d="M398.222,344.781h-85.333c-1.903,0-3.448-1.545-3.448-3.448s1.545-3.448,3.448-3.448h85.333
		c1.903,0,3.448,1.545,3.448,3.448S400.125,344.781,398.222,344.781z"/>
	<path style="fill:#FFC61B;" d="M284.444,344.781H256c-1.903,0-3.448-1.545-3.448-3.448s1.545-3.448,3.448-3.448h28.444
		c1.903,0,3.448,1.545,3.448,3.448S286.348,344.781,284.444,344.781z"/>
	<path style="fill:#FFC61B;" d="M184.889,316.337h-28.444c-1.903,0-3.448-1.545-3.448-3.448s1.545-3.448,3.448-3.448h28.444
		c1.903,0,3.448,1.545,3.448,3.448S186.792,316.337,184.889,316.337z"/>
	<path style="fill:#FFC61B;" d="M184.889,337.67h-28.444c-1.903,0-3.448-1.545-3.448-3.448s1.545-3.448,3.448-3.448h28.444
		c1.903,0,3.448,1.545,3.448,3.448S186.792,337.67,184.889,337.67z"/>
</g>
</svg>